<svg xmlns="http://www.w3.org/2000/svg" viewBox="0 0 1080 1080"><defs><style>.cls-1{fill:#222;}.cls-2{fill:#aaa;}</style></defs><g id="Layer_2" data-name="Layer 2"><g id="Layer_1-2" data-name="Layer 1"><path class="cls-1" d="M1079.82,540q0,265.6.18,531.2c0,6.91-1,8.8-8.47,8.8Q540.28,1079.62,9,1080c-7.93,0-9-2-9-9.31Q.3,540,0,9.34C0,2.13,1,0,9,0Q540.25.41,1071.5,0c7.46,0,8.51,1.8,8.5,8.76Q1079.66,274.39,1079.82,540ZM533.7,339.52c-9.16,0-16.61.67-23.89-.16-9.48-1.09-13.33,2.91-16.27,11.67-20.6,61.14-41.82,122.07-62.73,183.11-22.62,66-44.95,132.13-67.82,198.06-3.25,9.36-.21,10.63,8.07,10.35,14-.47,28.12-.69,42.13.09,8,.44,11-2.83,13-9.89,8.29-28.61,17.37-57,25.44-85.66,2.62-9.3,6.73-12.57,16.78-12.4,41.43.67,82.88.52,124.32.08,8.41-.09,12.44,2.23,14.86,10.58,8.57,29.63,18.26,58.94,26.76,88.59,2,7,5.11,8.75,11.68,8.59,15.09-.35,30.22-.57,45.3.06,9.44.39,11-1.69,7.8-11q-62.32-180.49-124-361.22c-3.4-9.93-4.63-22.72-11.58-28.75C556,335.1,542.69,340.51,533.7,339.52ZM853.3,680.85c-4.66-7.49-5.46-14.57-7.53-21.19q-48.72-156.13-97.2-312.36c-1.72-5.53-4.2-8.05-10.29-7.9-15.09.37-30.21.11-45.31.13-12.59,0-12.67.06-8.6,11.91q34,99,68,198,31.36,91.59,62.37,183.31c2.37,7,5.45,10.15,13.32,9.82,15.78-.65,31.62-.67,47.4,0,8,.34,10.77-2.93,13.14-9.94q43.27-127.54,87.1-254.9c14.67-42.8,29.24-85.64,44.21-128.33,2.74-7.82,1.87-10.73-7.08-10.08s-18.25.15-27.39.15c-25.42,0-25.64-.07-33.08,23.69-19,60.56-37.65,121.21-56.52,181.8C881.87,589.84,867.78,634.63,853.3,680.85ZM103.5,540.44c0,63.59.14,127.17-.17,190.75,0,8.41,1.7,12,10.89,11.43a356.37,356.37,0,0,1,40,0c8.62.46,10.55-2.69,10.5-10.78-.32-54.09.1-108.2-.4-162.29-.09-10,2.34-13,12.7-12.92,47.42.58,94.85.1,142.28.41,7.74.05,10.78-2,10.21-10a185.22,185.22,0,0,1,0-27.37c.7-8.91-2.6-11.26-11.28-11.19-47.43.38-94.86-.1-142.29.41-9.56.1-11.75-2.87-11.6-11.94.53-31.61.2-63.23.21-94.85,0-13.59,0-13.6,13.69-13.6,50.59,0,101.19-.16,151.78.15,8.17.05,12.46-1.37,11.65-10.8a165.77,165.77,0,0,1,0-27.38c.73-9-2.79-11.12-11.35-11.08q-108,.47-216.07,0c-9.07,0-11,3-11,11.42C103.65,414,103.5,477.21,103.5,540.44Z"/><path class="cls-2" d="M533.7,339.52c9,1,22.3-4.42,29.89,2.15,6.95,6,8.18,18.82,11.58,28.75q62,180.61,124,361.22c3.2,9.26,1.64,11.34-7.8,11-15.08-.63-30.21-.41-45.3-.06-6.57.16-9.68-1.62-11.68-8.59-8.5-29.65-18.19-59-26.76-88.59-2.42-8.35-6.45-10.67-14.86-10.58-41.44.44-82.89.59-124.32-.08-10.05-.17-14.16,3.1-16.78,12.4-8.07,28.67-17.15,57-25.44,85.66-2,7.06-5,10.33-13,9.89-14-.78-28.1-.56-42.13-.09-8.28.28-11.32-1-8.07-10.35,22.87-65.93,45.2-132,67.82-198.06,20.91-61,42.13-122,62.73-183.11,2.94-8.76,6.79-12.76,16.27-11.67C517.09,340.19,524.54,339.52,533.7,339.52ZM530.8,395c-1.64,1.83-2.33,2.26-2.52,2.85q-27.76,91.07-55.57,182.11c-2,6.5-1,8.51,6.19,8.44,33.38-.31,66.76-.42,100.14,0,9.86.13,10.16-3.37,7.57-11.29-6.12-18.65-11.46-37.56-17.21-56.33C556.69,479.24,543.92,437.7,530.8,395Z"/><path class="cls-2" d="M853.3,680.85c14.48-46.22,28.57-91,42.54-135.84,18.87-60.59,37.57-121.24,56.52-181.8,7.44-23.76,7.66-23.69,33.08-23.69,9.14,0,18.31.52,27.39-.15s9.82,2.26,7.08,10.08c-15,42.69-29.54,85.53-44.21,128.33q-43.65,127.43-87.1,254.9c-2.37,7-5.18,10.28-13.14,9.94-15.78-.68-31.62-.66-47.4,0-7.87.33-10.95-2.79-13.32-9.82Q783.86,641,752.37,549.48q-33.9-99-68-198c-4.07-11.85-4-11.9,8.6-11.91,15.1,0,30.22.24,45.31-.13,6.09-.15,8.57,2.37,10.29,7.9Q797,503.54,845.77,659.66C847.84,666.28,848.64,673.36,853.3,680.85Z"/><path class="cls-2" d="M103.5,540.44c0-63.23.15-126.47-.18-189.7,0-8.46,1.89-11.46,11-11.42q108,.54,216.07,0c8.56,0,12.08,2,11.35,11.08a165.77,165.77,0,0,0,0,27.38c.81,9.43-3.48,10.85-11.65,10.8-50.59-.31-101.19-.16-151.78-.15-13.68,0-13.69,0-13.69,13.6,0,31.62.32,63.24-.21,94.85-.15,9.07,2,12,11.6,11.94,47.43-.51,94.86,0,142.29-.41,8.68-.07,12,2.28,11.28,11.19a185.22,185.22,0,0,0,0,27.37c.57,8.06-2.47,10.08-10.21,10-47.43-.31-94.86.17-142.28-.41-10.36-.13-12.79,2.88-12.7,12.92.5,54.09.08,108.2.4,162.29.05,8.09-1.88,11.24-10.5,10.78a356.37,356.37,0,0,0-40,0c-9.19.53-10.94-3-10.89-11.43C103.64,667.61,103.5,604,103.5,540.44Z"/><path class="cls-1" d="M530.8,395c13.12,42.73,25.89,84.27,38.6,125.82,5.75,18.77,11.09,37.68,17.21,56.33,2.59,7.92,2.29,11.42-7.57,11.29-33.38-.46-66.76-.35-100.14,0-7.2.07-8.18-1.94-6.19-8.44q28-91,55.57-182.11C528.47,397.23,529.16,396.8,530.8,395Z"/></g></g></svg>